<svg width="36" height="36" viewBox="0 0 36 36" fill="none" xmlns="http://www.w3.org/2000/svg">
    <g clip-path="url(#clip0_32_497)">
    <path d="M17.7802 8.67977C12.5702 8.65977 8.62022 12.5098 8.56022 17.6598C8.50022 22.6398 12.5902 26.7298 17.6402 26.7498C22.8702 26.7698 26.8002 22.8798 26.8202 17.6698C26.8402 12.4898 23.0302 8.69977 17.7902 8.67977H17.7802ZM17.7102 23.5998C14.4602 23.5898 11.7502 20.8998 11.7302 17.6798C11.7102 14.5298 14.5002 11.8598 17.7802 11.8698C21.1602 11.8698 23.7002 14.3898 23.7102 17.7398C23.7102 20.9598 21.0002 23.6198 17.7102 23.5998Z" fill="#0A3047"/>
    <path d="M27.1102 6.2998C25.9202 6.2998 24.9902 7.2198 24.9902 8.3898C24.9902 9.5198 26.0002 10.5098 27.1402 10.4898C28.2702 10.4798 29.1802 9.5498 29.1802 8.4098C29.1802 7.1498 28.3602 6.3098 27.1202 6.2998H27.1102Z" fill="#0A3047"/>
    <path d="M35.4596 18.4799C35.4596 15.5399 35.4796 13.1799 35.4496 10.8099C35.4396 9.95993 35.3696 9.09993 35.2096 8.25993C34.2596 3.31993 30.2296 0.0699299 24.9196 0.0299299C20.2196 -0.0100701 15.5196 0.00992995 10.8096 0.0299299C7.61959 0.0399299 4.81959 1.03993 2.64959 3.47993C0.649594 5.70993 0.0195939 8.40993 0.00959388 11.2999C-0.00040612 15.6599 -0.0104061 20.0199 0.00959388 24.3799C0.00959388 25.5999 0.149594 26.8199 0.459594 28.0199C1.50959 31.9699 5.39959 35.3399 9.69959 35.3799C12.0396 35.3999 14.3696 35.3599 16.6996 35.3799C19.8896 35.4299 23.0796 35.5299 26.2696 35.3299C30.7996 35.0399 34.8496 31.1399 35.3096 26.6099C35.6096 23.7099 35.3496 20.7999 35.4496 18.4699L35.4596 18.4799ZM32.1496 25.1999C32.1096 29.0699 29.1396 32.1099 25.2696 32.1399C20.2496 32.1899 15.2396 32.1799 10.2196 32.1399C6.45959 32.1099 3.40959 29.1299 3.34959 25.3399C3.27959 20.2699 3.27959 15.1899 3.34959 10.1199C3.39959 6.38993 6.38959 3.40993 10.1596 3.34993C15.1696 3.26993 20.1896 3.26993 25.2096 3.34993C29.2896 3.40993 32.1396 6.40993 32.1596 10.4899C32.1696 12.9399 32.1596 15.3899 32.1596 17.8399C32.1596 20.2899 32.1796 22.7399 32.1596 25.1899L32.1496 25.1999Z" fill="#0A3047"/>
    </g>
    <defs>
    <clipPath id="clip0_32_497">
    <rect width="35.47" height="35.46" fill="white"/>
    </clipPath>
    </defs>
    </svg>
    