<svg width="33" height="26" viewBox="0 0 33 26" fill="none" xmlns="http://www.w3.org/2000/svg">
    <path
        d="M16.3804 0.0345883C14.8904 0.0345883 13.4004 0.0145883 11.9204 0.0345883C9.35042 0.0645883 6.77042 -0.105412 4.21042 0.114588C2.39042 0.284588 1.11042 1.28459 0.370416 2.96459C-0.029584 3.88459 0.030416 4.86459 0.000416026 5.84459C-0.00958397 6.29459 0.160416 6.54459 0.540416 6.76459C5.45042 9.64459 10.3504 12.5246 15.2404 15.4346C16.0304 15.9046 16.7104 15.8846 17.4904 15.4246C22.1104 12.6746 26.7504 9.95459 31.3804 7.22459C32.7304 6.43459 32.7404 6.43459 32.6904 4.85459C32.6404 2.98459 31.8604 1.54459 30.2004 0.624588C29.3804 0.174588 28.4704 0.0345883 27.5504 0.0345883C23.8304 0.0345883 20.1104 0.0345883 16.3904 0.0345883H16.3804ZM16.3504 25.2746C20.0904 25.2746 23.8204 25.2746 27.5604 25.2746C28.8504 25.2746 30.0504 24.9646 31.0504 24.1046C32.2004 23.1146 32.6804 21.8346 32.6904 20.3546C32.6904 17.2246 32.6904 14.0946 32.6904 10.9646C32.6904 10.7646 32.8004 10.4746 32.5804 10.3646C32.4004 10.2746 32.2204 10.4946 32.0504 10.5946C27.8604 13.0946 23.6704 15.6046 19.4804 18.1046C17.4004 19.3346 15.3004 19.3446 13.2304 18.1046C8.99042 15.5846 4.77042 13.0546 0.540416 10.5246C0.0804161 10.2446 0.020416 10.2746 0.020416 10.7446C0.020416 13.9846 0.000416026 17.2246 0.020416 20.4646C0.030416 22.3346 0.840416 23.7746 2.50042 24.6846C3.32042 25.1346 4.22042 25.2746 5.15042 25.2746C8.89042 25.2746 12.6204 25.2746 16.3604 25.2746H16.3504Z"
        fill="#0A3047" />
</svg>
    