<svg width="25" height="35" viewBox="0 0 25 35" fill="none" xmlns="http://www.w3.org/2000/svg">
    <g clip-path="url(#clip0_32_494)">
        <path
            d="M23.5796 6.91034C21.3096 2.34034 16.4696 -0.489661 11.0896 0.0703395C7.93959 0.390339 5.24959 1.74034 3.14959 4.11034C0.299594 7.33034 -0.590406 11.0703 0.379594 15.2403C1.03959 18.0703 2.29959 20.6603 3.73959 23.1503C6.11959 27.2703 8.96959 31.0503 12.0796 34.6303C12.3996 35.0003 12.4096 35.0003 12.7296 34.6303C15.3396 31.6403 17.7396 28.5003 19.8696 25.1503C21.2496 22.9703 22.4996 20.7103 23.4596 18.3003C24.2296 16.3503 24.7896 14.3503 24.8296 12.3103C24.7996 10.3703 24.4196 8.59034 23.5896 6.91034H23.5796ZM12.4296 16.6803C9.93959 16.6803 7.91959 14.7003 7.91959 12.2403C7.91959 9.80034 9.94959 7.81034 12.4096 7.81034C14.8796 7.81034 16.8796 9.81034 16.8796 12.2603C16.8796 14.6903 14.8796 16.6803 12.4296 16.6803Z"
            fill="#0A3047" />
    </g>
    <defs>
        <clipPath id="clip0_32_494">
            <rect width="24.82" height="34.92" fill="white" />
        </clipPath>
    </defs>
</svg>
    