<svg width="32" height="32" viewBox="0 0 32 32" fill="none" xmlns="http://www.w3.org/2000/svg">
    <path d="M26.3311 31.5868C24.6411 31.8068 22.9911 31.6168 21.3911 30.9868C18.8711 29.9868 16.7011 28.4268 14.5311 26.8468C12.0911 25.0668 9.96113 22.9368 7.91113 20.7268C5.22113 17.8368 3.08113 14.5768 1.32113 11.0568C0.591132 9.58681 0.0311323 8.04681 0.00113234 6.37681C-0.0388677 4.00681 0.981132 2.20681 3.02113 0.976808C3.95113 0.416808 4.89113 -0.0631918 6.04113 0.00680816C7.23113 0.0968082 8.08113 0.756808 8.79113 1.60681C9.74113 2.74681 10.6911 3.90681 11.4211 5.20681C11.8611 5.98681 12.2011 6.79681 12.3411 7.68681C12.4811 8.60681 12.3211 9.45681 11.8411 10.2368C11.5311 10.7468 11.1811 11.2468 10.8711 11.7568C10.4211 12.5068 10.4211 12.9268 11.0111 13.5668C13.2011 15.9568 15.2711 18.4668 17.8211 20.5168C18.3711 20.9568 18.9011 21.0768 19.5211 20.7268C20.0611 20.4168 20.6011 20.1168 21.1211 19.7868C21.9911 19.2168 22.9311 19.1368 23.9011 19.4068C26.5811 20.1568 28.8211 21.6368 30.7211 23.6368C31.3111 24.2568 31.7011 25.0068 31.6411 25.7768C31.6611 27.0868 31.0611 27.9968 30.3811 28.8568C29.3311 30.1968 28.1211 31.3268 26.3411 31.5568L26.3311 31.5868Z" fill="#0A3047"/>
    </svg>
    