<svg width="42" height="44" viewBox="0 0 42 44" fill="none" xmlns="http://www.w3.org/2000/svg">
    <g clip-path="url(#clip0_32_483)">
        <path
            d="M41.57 18.9203C41.2299 14.8203 39.79 11.0803 37.16 7.9103C31.95 1.6203 25.2299 -1.0097 17.1799 0.350297C10.1899 1.5403 5.14995 5.5603 2.00995 11.8903C0.179949 15.5803 -0.260051 19.5103 0.129949 23.5803C0.549949 27.9603 2.21995 31.7103 5.42995 34.7403C5.64995 34.9503 5.69995 35.2103 5.69995 35.4903C5.69995 36.1703 5.69995 36.8503 5.69995 37.5303C5.69995 38.1103 5.69995 38.6903 5.69995 39.2703C5.72995 42.1103 8.53995 43.8703 11.1099 42.6503C12.3099 42.0803 13.4999 41.4803 14.6899 40.8703C14.9999 40.7103 15.2799 40.6803 15.5999 40.8003C18.3199 41.7603 21.1299 41.7903 23.9299 41.3603C28.7999 40.6203 32.94 38.4203 36.24 34.7503C40.3 30.2503 42.06 24.9303 41.57 18.9103V18.9203ZM28.7099 35.9603C25.6499 37.5203 22.3999 38.1303 18.9799 37.7903C17.8499 37.6803 16.7699 37.3003 15.7199 36.9003C15.1099 36.6703 14.6099 36.7003 14.0399 37.0103C12.6899 37.7403 11.2999 38.4003 9.92995 39.0803C9.49995 39.2903 9.42995 39.2503 9.42995 38.7703C9.42995 37.9303 9.42995 37.0903 9.42995 36.2503C9.42995 35.5703 9.38995 34.8803 9.43995 34.2103C9.48995 33.5803 9.26995 33.1503 8.78995 32.7503C7.96995 32.0803 7.24995 31.3003 6.58995 30.4703C4.95995 28.4203 4.14995 26.0503 3.86995 23.4803C3.64995 21.4303 3.62995 19.3703 4.08995 17.3403C5.46995 11.2903 9.00995 6.9603 14.8199 4.8403C21.5099 2.4003 27.6199 3.7203 32.82 8.6403C35.79 11.4503 37.41 14.9903 37.84 19.0703C38.58 25.9703 34.8899 32.8003 28.7099 35.9503V35.9603Z"
            fill="#0A3047" />
        <path
            d="M31.6598 27.08C30.3898 25.93 28.9998 24.92 27.4998 24.1C26.5998 23.61 25.6898 23.85 25.0898 24.67C24.9598 24.85 24.8398 25.02 24.7098 25.2C23.9598 26.22 23.5898 26.3 22.5698 25.58C20.5498 24.16 18.8098 22.45 17.1598 20.63C16.6598 20.08 16.1998 19.51 15.8298 18.86C15.5698 18.4 15.5998 17.98 15.9198 17.57C16.2198 17.19 16.5898 16.89 16.9598 16.59C17.8198 15.92 18.0098 15.05 17.4998 14.09C17.1398 13.41 16.7698 12.74 16.3698 12.08C15.9398 11.37 15.4798 10.69 14.8498 10.13C14.0998 9.44998 13.2698 9.25998 12.3298 9.72998C11.0798 10.35 10.1998 11.3 9.66976 12.59C9.44976 13.13 9.41976 13.67 9.59976 14.24C10.1898 16.21 10.9398 18.1 11.9698 19.88C15.2198 25.47 19.9498 29.29 25.9498 31.58C26.5398 31.81 27.1398 32.04 27.9098 32.04C27.9498 32.04 28.0898 32.04 28.2298 32.02C28.3298 32.01 28.4298 32 28.5298 31.96C30.1498 31.38 31.3398 30.31 32.0598 28.74C32.3498 28.11 32.1398 27.52 31.6498 27.08H31.6598Z"
            fill="#0A3047" />
    </g>
    <defs>
        <clipPath id="clip0_32_483">
            <rect width="41.65" height="43.05" fill="white" />
        </clipPath>
    </defs>
</svg>
    