<svg xmlns="http://www.w3.org/2000/svg" width="38" height="38" viewBox="0 0 38 38" fill="none">
    <g clip-path="url(#clip0_30_573)">
      <path d="M18.8099 9.19001C13.2999 9.17001 9.11993 13.24 9.04993 18.69C8.98993 23.96 13.3099 28.29 18.6499 28.31C24.1799 28.33 28.3399 24.22 28.3599 18.7C28.3799 13.22 24.3499 9.21001 18.8099 9.19001ZM18.7299 24.96C15.2899 24.95 12.4199 22.11 12.3999 18.7C12.3799 15.37 15.3299 12.54 18.7999 12.55C22.3799 12.55 25.0699 15.22 25.0699 18.76C25.0699 22.17 22.1999 24.98 18.7199 24.96H18.7299Z" fill="#0A3047" />
      <path d="M28.6702 6.65997C27.4202 6.65997 26.4302 7.62997 26.4302 8.86997C26.4302 10.06 27.5002 11.11 28.7002 11.09C29.9002 11.08 30.8502 10.1 30.8502 8.88997C30.8502 7.54997 29.9802 6.65997 28.6702 6.65997Z" fill="#0A3047" />
      <path d="M37.5101 19.55C37.5101 16.44 37.5301 13.94 37.5001 11.44C37.4901 10.54 37.4201 9.62998 37.2501 8.74998C36.2401 3.50998 31.9801 0.0799837 26.3601 0.0299837C21.3901 -0.0100163 16.4101 -1.63335e-05 11.4401 0.0299837C8.07008 0.0499837 5.11008 1.09998 2.81008 3.67998C0.690082 6.03998 0.0200822 8.88998 0.0100822 11.96C8.21613e-05 16.57 -0.00991784 21.19 0.0100822 25.8C0.0100822 27.09 0.150082 28.38 0.490082 29.65C1.60008 33.83 5.72008 37.39 10.2701 37.44C12.7401 37.46 15.2101 37.41 17.6801 37.45C21.0501 37.5 24.4301 37.61 27.8001 37.4C32.5901 37.09 36.8801 32.96 37.3601 28.18C37.6701 25.11 37.4001 22.03 37.5101 19.57V19.55ZM34.0101 26.66C33.9701 30.75 30.8201 33.96 26.7301 34C21.4201 34.05 16.1201 34.04 10.8101 34C6.83008 33.97 3.60008 30.82 3.54008 26.81C3.46008 21.44 3.47008 16.08 3.54008 10.71C3.59008 6.76998 6.76008 3.60998 10.7401 3.54998C16.0501 3.46998 21.3501 3.45998 26.6601 3.54998C30.9801 3.61998 33.9901 6.78998 34.0101 11.1C34.0301 13.69 34.0101 16.29 34.0101 18.88C34.0101 21.47 34.0301 24.07 34.0101 26.66Z" fill="#0A3047" />
    </g>
    <defs>
      <clipPath id="clip0_30_573">
        <rect width="37.52" height="37.51" fill="white" />
      </clipPath>
    </defs>
  </svg>