<svg xmlns="http://www.w3.org/2000/svg" width="40" height="41" viewBox="0 0 40 41" fill="none">
    <g clip-path="url(#clip0_30_578)">
      <path d="M39.5899 18.02C39.2699 14.11 37.8899 10.56 35.3899 7.53C30.4299 1.54 24.0199 -0.969999 16.3599 0.330001C9.70986 1.46 4.90986 5.29 1.90986 11.33C0.169862 14.83 -0.240138 18.58 0.119862 22.45C0.519862 26.62 2.10986 30.19 5.16986 33.08C5.37986 33.28 5.42986 33.53 5.42986 33.8C5.42986 34.45 5.42986 35.1 5.42986 35.75C5.42986 36.3 5.42986 36.85 5.42986 37.41C5.45986 40.11 8.12986 41.79 10.5799 40.63C11.7299 40.09 12.8599 39.51 13.9899 38.94C14.2799 38.79 14.5499 38.76 14.8599 38.87C17.4499 39.78 20.1199 39.81 22.7899 39.41C27.4299 38.71 31.3699 36.61 34.5099 33.12C38.3699 28.83 40.0499 23.77 39.5799 18.03L39.5899 18.02ZM27.3399 34.25C24.4199 35.74 21.3299 36.31 18.0799 35.99C16.9999 35.88 15.9799 35.53 14.9699 35.14C14.3899 34.92 13.9199 34.95 13.3699 35.25C12.0799 35.94 10.7599 36.57 9.44986 37.22C9.03986 37.42 8.96986 37.38 8.96986 36.93C8.96986 36.13 8.96986 35.33 8.96986 34.53C8.96986 33.88 8.92986 33.23 8.97986 32.58C9.02986 31.98 8.81986 31.57 8.35986 31.19C7.57986 30.55 6.88986 29.81 6.25986 29.02C4.70986 27.07 3.92986 24.81 3.66986 22.36C3.45986 20.4 3.43986 18.45 3.87986 16.51C5.18986 10.75 8.56986 6.63 14.0999 4.61C20.4699 2.28 26.2899 3.55 31.2399 8.23C34.0699 10.91 35.6099 14.28 36.0199 18.16C36.7299 24.73 33.2099 31.23 27.3299 34.24L27.3399 34.25Z" fill="#0A3047"/>
      <path d="M30.1498 25.79C28.9398 24.69 27.6198 23.74 26.1898 22.95C25.3298 22.48 24.4698 22.71 23.8998 23.5C23.7798 23.67 23.6598 23.84 23.5398 24C22.8298 24.97 22.4798 25.05 21.4998 24.36C19.5798 23.01 17.9198 21.38 16.3498 19.64C15.8798 19.12 15.4298 18.58 15.0798 17.96C14.8298 17.52 14.8598 17.13 15.1698 16.73C15.4498 16.37 15.7998 16.08 16.1598 15.8C16.9798 15.16 17.1598 14.33 16.6798 13.41C16.3398 12.76 15.9798 12.12 15.6098 11.5C15.2098 10.82 14.7598 10.18 14.1698 9.64001C13.4498 8.99001 12.6698 8.81001 11.7698 9.26001C10.5798 9.85001 9.73977 10.76 9.23977 11.99C9.02977 12.5 9.00977 13.01 9.16977 13.56C9.72977 15.43 10.4398 17.24 11.4298 18.93C14.5198 24.25 19.0298 27.89 24.7498 30.07C25.3198 30.29 25.8898 30.51 26.6098 30.51C26.6398 30.51 26.7798 30.51 26.9198 30.49C27.0198 30.48 27.1098 30.47 27.1998 30.44C28.7398 29.88 29.8798 28.87 30.5598 27.38C30.8298 26.78 30.6298 26.22 30.1698 25.8L30.1498 25.79Z" fill="#0A3047"/>
    </g>
    <defs>
      <clipPath id="clip0_30_578">
        <rect width="39.67" height="41" fill="white"/>
      </clipPath>
    </defs>
  </svg>